{
	"asset":{
		"generator":"Khronos glTF Blender I/O v5.1.20",
		"version":"2.0"
	},
	"scene":0,
	"scenes":[
		{
			"name":"Scene",
			"nodes":[
				0,
				1,
				2,
				3,
				4,
				5,
				6,
				10
			]
		}
	],
	"nodes":[
		{
			"mesh":0,
			"name":"Cube"
		},
		{
			"mesh":1,
			"name":"Cube.001",
			"translation":[
				0,
				0.033125054091215134,
				0
			]
		},
		{
			"mesh":2,
			"name":"Cylinder",
			"rotation":[
				0,
				0,
				-0.8351916074752808,
				0.5499590635299683
			],
			"scale":[
				0.04572651907801628,
				0.04572651907801628,
				0.04572652280330658
			],
			"translation":[
				-0.8940398693084717,
				0.6871147751808167,
				0.2482113391160965
			]
		},
		{
			"mesh":3,
			"name":"Plane",
			"rotation":[
				0,
				0,
				0.5424338579177856,
				0.84009850025177
			],
			"scale":[
				0.031460847705602646,
				0.031460847705602646,
				0.031460847705602646
			],
			"translation":[
				-0.9522861242294312,
				0.6148046851158142,
				0
			]
		},
		{
			"mesh":4,
			"name":"Plane.001",
			"rotation":[
				-0.9992086887359619,
				0,
				0.03977445513010025,
				1.6292995042022085e-07
			],
			"scale":[
				0.17382463812828064,
				0.17382463812828064,
				0.17382463812828064
			],
			"translation":[
				0,
				2.9842824935913086,
				2.116403818130493
			]
		},
		{
			"mesh":5,
			"name":"Cube.009",
			"scale":[
				0.9094855785369873,
				0.15865790843963623,
				0.15865790843963623
			],
			"translation":[
				0,
				0.1584855616092682,
				3.113792896270752
			]
		},
		{
			"mesh":6,
			"name":"Cube.010",
			"scale":[
				0.48941072821617126,
				0.48941072821617126,
				0.48941072821617126
			],
			"translation":[
				0,
				4.9469475746154785,
				2.1120285987854004
			]
		},
		{
			"mesh":7,
			"name":"Cube.003",
			"rotation":[
				-0.11366976797580719,
				0.2744230329990387,
				-0.3654118776321411,
				0.882182240486145
			],
			"scale":[
				0.962373673915863,
				0.9623736143112183,
				0.962373673915863
			],
			"translation":[
				-1.2560465335845947,
				7.823836326599121,
				0.8231602907180786
			]
		},
		{
			"mesh":8,
			"name":"Cube.004",
			"rotation":[
				-0.3732907772064209,
				0.9012036919593811,
				-0.08426501601934433,
				0.20343367755413055
			],
			"scale":[
				0.9623736143112183,
				0.9623734354972839,
				0.962373673915863
			],
			"translation":[
				1.3706207275390625,
				7.823836326599121,
				0.6137144565582275
			]
		},
		{
			"mesh":9,
			"name":"Cube.005",
			"rotation":[
				0.2596210241317749,
				-0.6267805695533752,
				-0.28114673495292664,
				0.6787484884262085
			],
			"scale":[
				0.9623735547065735,
				0.9623734951019287,
				0.9623733758926392
			],
			"translation":[
				-0.1181238517165184,
				7.823835849761963,
				-1.4813964366912842
			]
		},
		{
			"children":[
				7,
				8,
				9
			],
			"mesh":10,
			"name":"Plane.002",
			"rotation":[
				-0.9992086887359619,
				0,
				0.03977445513010025,
				1.6292995042022085e-07
			],
			"scale":[
				0.17382463812828064,
				0.17382463812828064,
				0.17382463812828064
			],
			"translation":[
				0,
				2.9842824935913086,
				2.116403818130493
			]
		}
	],
	"animations":[
		{
			"channels":[
				{
					"sampler":0,
					"target":{
						"node":10,
						"path":"translation"
					}
				}
			],
			"name":"movedown",
			"samplers":[
				{
					"input":50,
					"interpolation":"LINEAR",
					"output":51
				}
			]
		}
	],
	"materials":[
		{
			"doubleSided":true,
			"name":"Material",
			"pbrMetallicRoughness":{
				"baseColorFactor":[
					0.7309309244155884,
					0.2677416503429413,
					0.11250226199626923,
					1
				],
				"metallicFactor":0,
				"roughnessFactor":0.5
			}
		},
		{
			"doubleSided":true,
			"name":"Material.002",
			"pbrMetallicRoughness":{
				"baseColorFactor":[
					0.3800513744354248,
					0.3800513744354248,
					0.3800513744354248,
					1
				],
				"metallicFactor":0.8588957190513611,
				"roughnessFactor":0.5
			}
		},
		{
			"doubleSided":true,
			"name":"Material.004",
			"pbrMetallicRoughness":{
				"baseColorFactor":[
					0.800000011920929,
					0.800000011920929,
					0.800000011920929,
					1
				],
				"metallicFactor":0,
				"roughnessFactor":0.5
			}
		},
		{
			"doubleSided":true,
			"name":"Material.003",
			"pbrMetallicRoughness":{
				"baseColorFactor":[
					0.022598523646593094,
					0.022598523646593094,
					0.022598523646593094,
					1
				],
				"metallicFactor":0,
				"roughnessFactor":0.5
			}
		},
		{
			"doubleSided":true,
			"name":"Material.001",
			"pbrMetallicRoughness":{
				"baseColorFactor":[
					0.8000074625015259,
					0.18773989379405975,
					0.41068053245544434,
					1
				],
				"metallicFactor":0.8466257452964783,
				"roughnessFactor":0.5
			}
		}
	],
	"meshes":[
		{
			"name":"Cube",
			"primitives":[
				{
					"attributes":{
						"POSITION":0,
						"NORMAL":1,
						"TEXCOORD_0":2
					},
					"indices":3,
					"material":0
				}
			]
		},
		{
			"name":"Cube.001",
			"primitives":[
				{
					"attributes":{
						"POSITION":4,
						"NORMAL":5,
						"TEXCOORD_0":6
					},
					"indices":7,
					"material":1
				}
			]
		},
		{
			"name":"Cylinder",
			"primitives":[
				{
					"attributes":{
						"POSITION":8,
						"NORMAL":9,
						"TEXCOORD_0":10
					},
					"indices":11
				}
			]
		},
		{
			"name":"Plane",
			"primitives":[
				{
					"attributes":{
						"POSITION":12,
						"NORMAL":13,
						"TEXCOORD_0":14
					},
					"indices":15,
					"material":2
				},
				{
					"attributes":{
						"POSITION":16,
						"NORMAL":17,
						"TEXCOORD_0":18
					},
					"indices":19,
					"material":3
				}
			]
		},
		{
			"name":"Plane.001",
			"primitives":[
				{
					"attributes":{
						"POSITION":20,
						"NORMAL":21,
						"TEXCOORD_0":22
					},
					"indices":23,
					"material":1
				}
			]
		},
		{
			"name":"Cube.010",
			"primitives":[
				{
					"attributes":{
						"POSITION":24,
						"NORMAL":25,
						"TEXCOORD_0":26
					},
					"indices":27,
					"material":1
				}
			]
		},
		{
			"name":"Cube.011",
			"primitives":[
				{
					"attributes":{
						"POSITION":28,
						"NORMAL":29,
						"TEXCOORD_0":30
					},
					"indices":31,
					"material":1
				}
			]
		},
		{
			"name":"Cube.003",
			"primitives":[
				{
					"attributes":{
						"POSITION":32,
						"NORMAL":33,
						"TEXCOORD_0":34
					},
					"indices":35,
					"material":4
				}
			]
		},
		{
			"name":"Cube.004",
			"primitives":[
				{
					"attributes":{
						"POSITION":36,
						"NORMAL":37,
						"TEXCOORD_0":38
					},
					"indices":35,
					"material":4
				}
			]
		},
		{
			"name":"Cube.005",
			"primitives":[
				{
					"attributes":{
						"POSITION":39,
						"NORMAL":40,
						"TEXCOORD_0":41
					},
					"indices":35,
					"material":4
				}
			]
		},
		{
			"name":"Plane.002",
			"primitives":[
				{
					"attributes":{
						"POSITION":42,
						"NORMAL":43,
						"TEXCOORD_0":44
					},
					"indices":45,
					"material":0
				},
				{
					"attributes":{
						"POSITION":46,
						"NORMAL":47,
						"TEXCOORD_0":48
					},
					"indices":49,
					"material":3
				}
			]
		}
	],
	"accessors":[
		{
			"bufferView":0,
			"componentType":5126,
			"count":152,
			"max":[
				0.7000000476837158,
				1.4003185033798218,
				1
			],
			"min":[
				-0.7000000476837158,
				0.0003184080123901367,
				-1
			],
			"type":"VEC3"
		},
		{
			"bufferView":1,
			"componentType":5126,
			"count":152,
			"type":"VEC3"
		},
		{
			"bufferView":2,
			"componentType":5126,
			"count":152,
			"type":"VEC2"
		},
		{
			"bufferView":3,
			"componentType":5123,
			"count":276,
			"type":"SCALAR"
		},
		{
			"bufferView":4,
			"componentType":5126,
			"count":334,
			"max":[
				-0.5147576332092285,
				0.9773271679878235,
				0.3306530714035034
			],
			"min":[
				-0.97427898645401,
				0.4145567715167999,
				-0.33039048314094543
			],
			"type":"VEC3"
		},
		{
			"bufferView":5,
			"componentType":5126,
			"count":334,
			"type":"VEC3"
		},
		{
			"bufferView":6,
			"componentType":5126,
			"count":334,
			"type":"VEC2"
		},
		{
			"bufferView":7,
			"componentType":5123,
			"count":522,
			"type":"SCALAR"
		},
		{
			"bufferView":8,
			"componentType":5126,
			"count":192,
			"max":[
				1,
				1,
				1
			],
			"min":[
				-1,
				-1,
				-1
			],
			"type":"VEC3"
		},
		{
			"bufferView":9,
			"componentType":5126,
			"count":192,
			"type":"VEC3"
		},
		{
			"bufferView":10,
			"componentType":5126,
			"count":192,
			"type":"VEC2"
		},
		{
			"bufferView":11,
			"componentType":5123,
			"count":372,
			"type":"SCALAR"
		},
		{
			"bufferView":12,
			"componentType":5126,
			"count":111,
			"max":[
				1.6792984008789062,
				6.901579041596051e-08,
				5.141709327697754
			],
			"min":[
				-1,
				-3.6199423902871786e-08,
				-8.492019653320312
			],
			"type":"VEC3"
		},
		{
			"bufferView":13,
			"componentType":5126,
			"count":111,
			"type":"VEC3"
		},
		{
			"bufferView":14,
			"componentType":5126,
			"count":111,
			"type":"VEC2"
		},
		{
			"bufferView":15,
			"componentType":5123,
			"count":504,
			"type":"SCALAR"
		},
		{
			"bufferView":16,
			"componentType":5126,
			"count":576,
			"max":[
				1.1823896169662476,
				0.15532918274402618,
				4.644800662994385
			],
			"min":[
				-0.5030912160873413,
				5.527155622075952e-09,
				-7.995111465454102
			],
			"type":"VEC3"
		},
		{
			"bufferView":17,
			"componentType":5126,
			"count":576,
			"type":"VEC3"
		},
		{
			"bufferView":18,
			"componentType":5126,
			"count":576,
			"type":"VEC2"
		},
		{
			"bufferView":19,
			"componentType":5123,
			"count":864,
			"type":"SCALAR"
		},
		{
			"bufferView":20,
			"componentType":5126,
			"count":346,
			"max":[
				2.556703805923462,
				9.228689193725586,
				11.911739349365234
			],
			"min":[
				-2.347980499267578,
				-8.815311431884766,
				-2.3289830684661865
			],
			"type":"VEC3"
		},
		{
			"bufferView":21,
			"componentType":5126,
			"count":346,
			"type":"VEC3"
		},
		{
			"bufferView":22,
			"componentType":5126,
			"count":346,
			"type":"VEC2"
		},
		{
			"bufferView":23,
			"componentType":5123,
			"count":570,
			"type":"SCALAR"
		},
		{
			"bufferView":24,
			"componentType":5126,
			"count":760,
			"max":[
				1.1411917209625244,
				25.971715927124023,
				0.6805038452148438
			],
			"min":[
				-1.1414941549301147,
				-1.0052399635314941,
				-13.252020835876465
			],
			"type":"VEC3"
		},
		{
			"bufferView":25,
			"componentType":5126,
			"count":760,
			"type":"VEC3"
		},
		{
			"bufferView":26,
			"componentType":5126,
			"count":760,
			"type":"VEC2"
		},
		{
			"bufferView":27,
			"componentType":5123,
			"count":1416,
			"type":"SCALAR"
		},
		{
			"bufferView":28,
			"componentType":5126,
			"count":352,
			"max":[
				1.0817586183547974,
				0.35118648409843445,
				1.0817583799362183
			],
			"min":[
				-1.0817584991455078,
				-1.3675479888916016,
				-1.0817583799362183
			],
			"type":"VEC3"
		},
		{
			"bufferView":29,
			"componentType":5126,
			"count":352,
			"type":"VEC3"
		},
		{
			"bufferView":30,
			"componentType":5126,
			"count":352,
			"type":"VEC2"
		},
		{
			"bufferView":31,
			"componentType":5123,
			"count":528,
			"type":"SCALAR"
		},
		{
			"bufferView":32,
			"componentType":5126,
			"count":1380,
			"max":[
				1.5673202276229858,
				1.6934146881103516,
				1.5673202276229858
			],
			"min":[
				-1.5673202276229858,
				-0.45669811964035034,
				-1.5673202276229858
			],
			"type":"VEC3"
		},
		{
			"bufferView":33,
			"componentType":5126,
			"count":1380,
			"type":"VEC3"
		},
		{
			"bufferView":34,
			"componentType":5126,
			"count":1380,
			"type":"VEC2"
		},
		{
			"bufferView":35,
			"componentType":5123,
			"count":2256,
			"type":"SCALAR"
		},
		{
			"bufferView":36,
			"componentType":5126,
			"count":1380,
			"max":[
				1.5673202276229858,
				1.6934146881103516,
				1.5673202276229858
			],
			"min":[
				-1.5673202276229858,
				-0.45669811964035034,
				-1.5673202276229858
			],
			"type":"VEC3"
		},
		{
			"bufferView":37,
			"componentType":5126,
			"count":1380,
			"type":"VEC3"
		},
		{
			"bufferView":38,
			"componentType":5126,
			"count":1380,
			"type":"VEC2"
		},
		{
			"bufferView":39,
			"componentType":5126,
			"count":1380,
			"max":[
				1.5673202276229858,
				1.6934146881103516,
				1.5673202276229858
			],
			"min":[
				-1.5673202276229858,
				-0.45669811964035034,
				-1.5673202276229858
			],
			"type":"VEC3"
		},
		{
			"bufferView":40,
			"componentType":5126,
			"count":1380,
			"type":"VEC3"
		},
		{
			"bufferView":41,
			"componentType":5126,
			"count":1380,
			"type":"VEC2"
		},
		{
			"bufferView":42,
			"componentType":5126,
			"count":839,
			"max":[
				2.4053053855895996,
				8.084450721740723,
				2.063291549682617
			],
			"min":[
				-2.2980408668518066,
				-27.89749526977539,
				-2.5376298427581787
			],
			"type":"VEC3"
		},
		{
			"bufferView":43,
			"componentType":5126,
			"count":839,
			"type":"VEC3"
		},
		{
			"bufferView":44,
			"componentType":5126,
			"count":839,
			"type":"VEC2"
		},
		{
			"bufferView":45,
			"componentType":5123,
			"count":1317,
			"type":"SCALAR"
		},
		{
			"bufferView":46,
			"componentType":5126,
			"count":192,
			"max":[
				2.480356216430664,
				8.488826751708984,
				2.0047998428344727
			],
			"min":[
				-2.3968567848205566,
				6.740077495574951,
				-2.6018223762512207
			],
			"type":"VEC3"
		},
		{
			"bufferView":47,
			"componentType":5126,
			"count":192,
			"type":"VEC3"
		},
		{
			"bufferView":48,
			"componentType":5126,
			"count":192,
			"type":"VEC2"
		},
		{
			"bufferView":49,
			"componentType":5123,
			"count":288,
			"type":"SCALAR"
		},
		{
			"bufferView":50,
			"componentType":5126,
			"count":48,
			"max":[
				2
			],
			"min":[
				0.041666666666666664
			],
			"type":"SCALAR"
		},
		{
			"bufferView":51,
			"componentType":5126,
			"count":48,
			"type":"VEC3"
		}
	],
	"bufferViews":[
		{
			"buffer":0,
			"byteLength":1824,
			"byteOffset":0,
			"target":34962
		},
		{
			"buffer":0,
			"byteLength":1824,
			"byteOffset":1824,
			"target":34962
		},
		{
			"buffer":0,
			"byteLength":1216,
			"byteOffset":3648,
			"target":34962
		},
		{
			"buffer":0,
			"byteLength":552,
			"byteOffset":4864,
			"target":34963
		},
		{
			"buffer":0,
			"byteLength":4008,
			"byteOffset":5416,
			"target":34962
		},
		{
			"buffer":0,
			"byteLength":4008,
			"byteOffset":9424,
			"target":34962
		},
		{
			"buffer":0,
			"byteLength":2672,
			"byteOffset":13432,
			"target":34962
		},
		{
			"buffer":0,
			"byteLength":1044,
			"byteOffset":16104,
			"target":34963
		},
		{
			"buffer":0,
			"byteLength":2304,
			"byteOffset":17148,
			"target":34962
		},
		{
			"buffer":0,
			"byteLength":2304,
			"byteOffset":19452,
			"target":34962
		},
		{
			"buffer":0,
			"byteLength":1536,
			"byteOffset":21756,
			"target":34962
		},
		{
			"buffer":0,
			"byteLength":744,
			"byteOffset":23292,
			"target":34963
		},
		{
			"buffer":0,
			"byteLength":1332,
			"byteOffset":24036,
			"target":34962
		},
		{
			"buffer":0,
			"byteLength":1332,
			"byteOffset":25368,
			"target":34962
		},
		{
			"buffer":0,
			"byteLength":888,
			"byteOffset":26700,
			"target":34962
		},
		{
			"buffer":0,
			"byteLength":1008,
			"byteOffset":27588,
			"target":34963
		},
		{
			"buffer":0,
			"byteLength":6912,
			"byteOffset":28596,
			"target":34962
		},
		{
			"buffer":0,
			"byteLength":6912,
			"byteOffset":35508,
			"target":34962
		},
		{
			"buffer":0,
			"byteLength":4608,
			"byteOffset":42420,
			"target":34962
		},
		{
			"buffer":0,
			"byteLength":1728,
			"byteOffset":47028,
			"target":34963
		},
		{
			"buffer":0,
			"byteLength":4152,
			"byteOffset":48756,
			"target":34962
		},
		{
			"buffer":0,
			"byteLength":4152,
			"byteOffset":52908,
			"target":34962
		},
		{
			"buffer":0,
			"byteLength":2768,
			"byteOffset":57060,
			"target":34962
		},
		{
			"buffer":0,
			"byteLength":1140,
			"byteOffset":59828,
			"target":34963
		},
		{
			"buffer":0,
			"byteLength":9120,
			"byteOffset":60968,
			"target":34962
		},
		{
			"buffer":0,
			"byteLength":9120,
			"byteOffset":70088,
			"target":34962
		},
		{
			"buffer":0,
			"byteLength":6080,
			"byteOffset":79208,
			"target":34962
		},
		{
			"buffer":0,
			"byteLength":2832,
			"byteOffset":85288,
			"target":34963
		},
		{
			"buffer":0,
			"byteLength":4224,
			"byteOffset":88120,
			"target":34962
		},
		{
			"buffer":0,
			"byteLength":4224,
			"byteOffset":92344,
			"target":34962
		},
		{
			"buffer":0,
			"byteLength":2816,
			"byteOffset":96568,
			"target":34962
		},
		{
			"buffer":0,
			"byteLength":1056,
			"byteOffset":99384,
			"target":34963
		},
		{
			"buffer":0,
			"byteLength":16560,
			"byteOffset":100440,
			"target":34962
		},
		{
			"buffer":0,
			"byteLength":16560,
			"byteOffset":117000,
			"target":34962
		},
		{
			"buffer":0,
			"byteLength":11040,
			"byteOffset":133560,
			"target":34962
		},
		{
			"buffer":0,
			"byteLength":4512,
			"byteOffset":144600,
			"target":34963
		},
		{
			"buffer":0,
			"byteLength":16560,
			"byteOffset":149112,
			"target":34962
		},
		{
			"buffer":0,
			"byteLength":16560,
			"byteOffset":165672,
			"target":34962
		},
		{
			"buffer":0,
			"byteLength":11040,
			"byteOffset":182232,
			"target":34962
		},
		{
			"buffer":0,
			"byteLength":16560,
			"byteOffset":193272,
			"target":34962
		},
		{
			"buffer":0,
			"byteLength":16560,
			"byteOffset":209832,
			"target":34962
		},
		{
			"buffer":0,
			"byteLength":11040,
			"byteOffset":226392,
			"target":34962
		},
		{
			"buffer":0,
			"byteLength":10068,
			"byteOffset":237432,
			"target":34962
		},
		{
			"buffer":0,
			"byteLength":10068,
			"byteOffset":247500,
			"target":34962
		},
		{
			"buffer":0,
			"byteLength":6712,
			"byteOffset":257568,
			"target":34962
		},
		{
			"buffer":0,
			"byteLength":2634,
			"byteOffset":264280,
			"target":34963
		},
		{
			"buffer":0,
			"byteLength":2304,
			"byteOffset":266916,
			"target":34962
		},
		{
			"buffer":0,
			"byteLength":2304,
			"byteOffset":269220,
			"target":34962
		},
		{
			"buffer":0,
			"byteLength":1536,
			"byteOffset":271524,
			"target":34962
		},
		{
			"buffer":0,
			"byteLength":576,
			"byteOffset":273060,
			"target":34963
		},
		{
			"buffer":0,
			"byteLength":192,
			"byteOffset":273636
		},
		{
			"buffer":0,
			"byteLength":576,
			"byteOffset":273828
		}
	],
	"buffers":[
		{
			"byteLength":274404,
			"uri":"foreusetestanim.bin"
		}
	]
}
